<?xml version="1.0" encoding="utf-8"?>
<svg version="1.1" width="512" height="512" xmlns="http://www.w3.org/2000/svg">
  <defs/>
  <ellipse style="stroke-width: 0px; fill: rgb(255, 255, 255);" cx="257.435" cy="243.818" rx="248.59" ry="253.865"/>
  <path d="M0 0 C2.86972996 1.99633389 4.65210765 3.47229883 5.44921875 6.97265625 C5.62252838 10.16992015 5.43432486 12.41750703 3.5 15.01171875 C0.09448901 17.72016421 -3.55322005 19.12274047 -7.5625 20.75 C-26.61681755 28.89711411 -40.78432202 42.51974154 -48.56640625 61.7578125 C-50.71540605 67.52521366 -52.26422931 72.87374091 -53 79 C-51.96101562 79.54527344 -50.92203125 80.09054688 -49.8515625 80.65234375 C-32.72807875 89.82380256 -19.69157946 101.58910259 -13.86328125 120.65625 C-11.8897856 129.21421246 -12.06109737 138.25828466 -12 147 C-11.35264893 147.24532471 -10.70529785 147.49064941 -10.03833008 147.7434082 C14.21018705 157.00364343 35.99187813 167.04102771 55 185 C56.16015625 186.06347656 56.16015625 186.06347656 57.34375 187.1484375 C67.89602679 197.15864528 76.83536529 210.13589655 77.53857422 225.0534668 C77.71766916 240.55979906 70.6633172 251.55999786 60.42578125 262.640625 C54.55064326 268.3549299 47.57195085 272.87187137 40 276 C39.14921875 276.37253906 38.2984375 276.74507813 37.421875 277.12890625 C25.71844721 281.52535098 11.16534449 281.70265424 -1 279 C-1.4125 280.22074219 -1.825 281.44148438 -2.25 282.69921875 C-9.9873302 305.00026706 -23.20956261 325.14998968 -45 336 C-47.44987581 337.10203896 -49.8913719 338.16893694 -52.375 339.1875 C-53.0153418 339.45022705 -53.65568359 339.7129541 -54.31542969 339.98364258 C-58.37834338 341.57171367 -62.13175124 342.32521413 -66.4375 342.875 C-69.45547696 343.52984406 -71.31060602 344.11584814 -73.23925781 346.58935547 C-75.64545559 350.55868173 -77.46851569 354.75307776 -79.19580078 359.05322266 C-80.32046792 361.77577754 -81.64891264 364.3840649 -83 367 C-84.98 367 -86.96 367 -89 367 C-89.76191418 365.47617164 -90.52345093 363.95215353 -91.28320312 362.42724609 C-91.93140313 361.13510194 -92.58644479 359.84636875 -93.24804688 358.56103516 C-94.62632436 355.8665709 -95.89818359 353.31601509 -96.828125 350.4296875 C-97.60666583 348.04880101 -98.1899776 346.75177911 -100 345 C-103.53440808 343.68604259 -107.10964373 342.85703133 -110.78125 342.04296875 C-130.64660043 337.47818446 -147.99584096 323.91609645 -158.9375 306.9375 C-164.42672335 298.08945232 -168.31904241 289.04814187 -171 279 C-171.7122876 279.15936035 -172.4245752 279.3187207 -173.15844727 279.48291016 C-191.00185172 282.72995291 -208.26355688 280.32228955 -223.27734375 270.0625 C-236.11095414 260.34062584 -245.96644677 249.08347639 -250 233 C-251.47363096 219.73732134 -245.30193386 206.31655009 -237.375 196 C-235.94243255 194.31113517 -234.48205445 192.64560885 -233 191 C-232.14792969 190.05382812 -231.29585937 189.10765625 -230.41796875 188.1328125 C-211.90840197 168.30970541 -186.2601973 155.91844972 -161 147 C-160.34 147 -159.68 147 -159 147 C-159.165 145.906875 -159.33 144.81375 -159.5 143.6875 C-161.56965183 126.04912395 -156.6346239 112.71448975 -146.16015625 98.50390625 C-139.05642645 89.838257 -129.14099013 83.57338771 -119 79 C-121.35549985 59.04157115 -131.98989876 43.14058613 -147.04760742 30.45727539 C-150.59710767 27.80791101 -154.49117332 25.86226856 -158.4375 23.875 C-159.24509766 23.45863281 -160.05269531 23.04226562 -160.88476562 22.61328125 C-164.75086109 20.62571565 -168.63825968 18.68411439 -172.53515625 16.7578125 C-176 15 -176 15 -177 14 C-177.52129014 9.78695019 -177.66488173 6.18522395 -175.5625 2.4375 C-171.60354693 0.21662389 -168.43422545 0.25430443 -164 1 C-140.38490825 8.03716201 -121.35995196 26.14255782 -109.82421875 47.40625 C-105.50678777 55.69571748 -103.02867147 63.87097836 -101 73 C-91.1 73 -81.2 73 -71 73 C-70.54625 70.751875 -70.0925 68.50375 -69.625 66.1875 C-65.76443401 49.794653 -56.68686498 35.89790547 -45 24 C-44.16597656 23.14921875 -43.33195313 22.2984375 -42.47265625 21.421875 C-33.30254738 12.68277611 -13.77021254 -2.44803778 0 0 Z " fill="#000000" transform="translate(343,59)"/>
</svg>